<?xml version="1.0" standalone="no"?>
<!DOCTYPE svg PUBLIC "-//W3C//DTD SVG 20010904//EN"
 "http://www.w3.org/TR/2001/REC-SVG-20010904/DTD/svg10.dtd">
<svg version="1.0" xmlns="http://www.w3.org/2000/svg"
 width="594.000000pt" height="594.000000pt" viewBox="0 0 594.000000 594.000000"
 preserveAspectRatio="xMidYMid meet">
<metadata>
Created by potrace 1.11, written by Peter Selinger 2001-2013
</metadata>
<g transform="translate(0.000000,594.000000) scale(0.100000,-0.100000)"
fill="#000000" stroke="none">
<path d="M3365 5844 c-25 -53 -45 -98 -45 -99 0 -2 -22 -51 -50 -109 -27 -58
-50 -108 -50 -110 0 -2 -21 -48 -46 -103 -25 -54 -56 -120 -69 -148 -12 -27
-31 -70 -43 -95 -34 -75 -80 -177 -159 -350 -41 -91 -86 -190 -100 -220 -33
-71 -78 -169 -138 -302 -27 -60 -52 -108 -56 -108 -3 0 -6 378 -6 840 0 462
-2 843 -5 845 -3 3 -40 -2 -84 -10 -190 -37 -290 -56 -464 -89 -102 -20 -196
-37 -210 -40 -14 -2 -47 -9 -75 -15 -97 -20 -330 -64 -342 -64 -10 0 -13 -571
-13 -2820 l0 -2820 43 6 c23 4 53 9 67 12 55 11 126 25 150 29 14 2 48 9 75
15 28 6 64 13 80 16 17 3 65 12 108 20 42 8 112 21 155 29 114 22 496 96 506
99 6 2 9 331 9 825 0 638 2 818 11 800 7 -13 20 -43 30 -68 10 -25 24 -60 32
-77 32 -75 50 -118 239 -568 108 -259 204 -488 214 -510 10 -22 76 -178 147
-347 l129 -308 81 0 c91 0 51 -16 549 225 99 47 251 121 338 163 l157 76 0 78
c0 65 -5 88 -30 143 -16 36 -30 67 -30 70 0 2 -14 34 -31 72 -16 37 -34 77
-39 88 -10 23 -42 97 -170 390 -50 116 -98 225 -106 242 -51 117 -123 282
-144 328 -21 46 -260 596 -357 820 -36 83 -73 168 -83 190 -54 119 -70 159
-70 175 0 9 15 48 34 86 18 38 42 89 54 114 20 44 60 131 140 300 21 47 70
150 107 230 37 80 88 188 112 240 25 52 69 147 98 210 29 63 73 158 98 210 47
100 98 209 152 325 18 39 48 104 68 145 194 409 197 418 197 507 0 48 -4 83
-10 83 -5 0 -58 23 -116 50 -58 28 -108 50 -109 50 -2 0 -43 18 -92 41 -48 22
-101 46 -118 54 -105 47 -278 126 -325 148 -193 88 -189 87 -272 87 l-79 0
-44 -96z"/>
</g>
</svg>
